<?xml version="1.0" encoding="utf-8"?>
<!-- Generator: Adobe Illustrator 26.4.1, SVG Export Plug-In . SVG Version: 6.00 Build 0)  -->
<svg version="1.1" xmlns="http://www.w3.org/2000/svg" xmlns:xlink="http://www.w3.org/1999/xlink" x="0px" y="0px"
	 viewBox="0 0 208 32" style="enable-background:new 0 0 208 32;" xml:space="preserve">
<style type="text/css">
	.st0{fill:#FF750F;}
	.st1{fill:#FFAF0F;}
	.st2{fill:#FFFFFF;}
</style>
<path class="st0" d="M5.3,3h4.6c0.8,0,1.5,0.7,1.5,1.5v4.6c0,0.8-0.7,1.5-1.5,1.5H5.3c-0.8,0-1.5-0.7-1.5-1.5V4.6
	C3.8,3.7,4.5,3,5.3,3z"/>
<path class="st1" d="M5.3,12.2h4.6c0.8,0,1.5,0.7,1.5,1.5v13.7c0,0.8-0.7,1.5-1.5,1.5H5.3c-0.8,0-1.5-0.7-1.5-1.5V13.7
	C3.8,12.9,4.5,12.2,5.3,12.2z"/>
<path class="st1" d="M14.5,3h12.2c0.8,0,1.5,0.7,1.5,1.5v9.1c0,0.8-0.7,1.5-1.5,1.5H14.5c-0.8,0-1.5-0.7-1.5-1.5V4.6
	C13,3.7,13.6,3,14.5,3z"/>
<path class="st1" d="M14.5,16.8h12.2c0.8,0,1.5,0.7,1.5,1.5v9.1c0,0.8-0.7,1.5-1.5,1.5H14.5c-0.8,0-1.5-0.7-1.5-1.5v-9.1
	C13,17.4,13.6,16.8,14.5,16.8z"/>
<path class="st2" d="M38,6.4h4.9c1.6,0,2.7,0.1,3.5,0.4c0.8,0.2,1.5,0.7,1.9,1.5c0.5,0.7,0.7,1.9,0.7,3.6c0,1.1-0.2,1.9-0.5,2.3
	c-0.3,0.4-1,0.8-2.1,1c1.1,0.3,1.9,0.7,2.3,1.3c0.4,0.6,0.6,1.5,0.6,2.7v1.8c0,1.3-0.1,2.2-0.4,2.8c-0.3,0.6-0.8,1-1.4,1.3
	c-0.6,0.2-2,0.3-3.9,0.3H38V6.4z M42.9,9.6v4.2c0.2,0,0.4,0,0.5,0c0.5,0,0.8-0.1,0.9-0.4c0.1-0.2,0.2-0.9,0.2-2.1
	c0-0.6-0.1-1-0.2-1.2C44.3,10,44.1,9.8,44,9.8C43.8,9.7,43.4,9.7,42.9,9.6z M42.9,16.8v5.3c0.7,0,1.1-0.1,1.3-0.3
	c0.2-0.2,0.3-0.7,0.3-1.4v-1.8c0-0.8-0.1-1.3-0.3-1.5C44.1,16.9,43.7,16.8,42.9,16.8z"/>
<path class="st1" d="M56.2,6.4v5h-4.9v-5H56.2z"/>
<path class="st2" d="M68.1,6.4v3.8h-2.9v15.2h-4.9V10.2h-2.9V6.4H68.1z"/>
<path class="st2" d="M84.5,6.4v19h-4.3V12.6l-1.7,12.8h-3.1l-1.8-12.5v12.5h-4.3v-19h6.4c0.2,1.1,0.4,2.5,0.6,4l0.7,4.8L78,6.4H84.5
	z"/>
<path class="st2" d="M95,6.4l2.8,19h-5.1L92.5,22h-1.8l-0.3,3.4h-5.1l2.5-19H95z M92.4,18.6c-0.2-2.1-0.5-4.8-0.8-8
	c-0.5,3.6-0.8,6.3-0.9,8H92.4z"/>
<path class="st2" d="M98.6,6.4h5c1.3,0,2.4,0.1,3.1,0.3c0.7,0.2,1.3,0.5,1.6,0.9c0.4,0.4,0.6,0.9,0.7,1.5c0.1,0.6,0.2,1.4,0.2,2.6
	v1.7c0,1.2-0.1,2.1-0.4,2.6c-0.2,0.6-0.7,1-1.4,1.3c-0.7,0.3-1.5,0.4-2.6,0.4h-1.3v7.6h-4.9V6.4z M103.6,9.6v4.8c0.1,0,0.3,0,0.4,0
	c0.5,0,0.8-0.1,0.9-0.3c0.2-0.2,0.3-0.7,0.3-1.4v-1.6c0-0.6-0.1-1.1-0.3-1.3C104.6,9.7,104.2,9.6,103.6,9.6z"/>
<path class="st2" d="M114.9,6.4h8.2v3.8h-3.3v3.6h3.1v3.6h-3.1v4.2h3.6v3.8h-8.6V6.4z"/>
<path class="st2" d="M134.9,6.4l-1.7,8.4l2.6,10.6h-4.6c-0.5-1.9-1-4.2-1.5-6.9c-0.1,1.2-0.3,2.5-0.5,3.8l-0.5,3.1h-4.8l1.8-10.6
	l-1.8-8.4h4.8c0.1,0.5,0.3,1.4,0.5,2.6c0.2,0.9,0.4,1.8,0.5,2.6l1.1-5.2H134.9z"/>
<path class="st2" d="M136.5,6.4h5c1.3,0,2.4,0.1,3.1,0.3c0.7,0.2,1.3,0.5,1.6,0.9c0.4,0.4,0.6,0.9,0.7,1.5c0.1,0.6,0.2,1.4,0.2,2.6
	v1.7c0,1.2-0.1,2.1-0.4,2.6c-0.2,0.6-0.7,1-1.4,1.3c-0.7,0.3-1.5,0.4-2.6,0.4h-1.3v7.6h-4.9V6.4z M141.4,9.6v4.8c0.1,0,0.3,0,0.4,0
	c0.5,0,0.8-0.1,0.9-0.3c0.2-0.2,0.3-0.7,0.3-1.4v-1.6c0-0.6-0.1-1.1-0.3-1.3C142.5,9.7,142.1,9.6,141.4,9.6z"/>
<path class="st2" d="M153.5,6.4v15.2h3v3.8h-7.9v-19H153.5z"/>
<path class="st2" d="M168.9,17.5c0,1.9,0,3.3-0.1,4.1c-0.1,0.8-0.4,1.5-0.8,2.2c-0.5,0.7-1.1,1.2-1.9,1.5c-0.8,0.4-1.7,0.5-2.8,0.5
	c-1,0-1.9-0.2-2.7-0.5c-0.8-0.3-1.5-0.8-1.9-1.5c-0.5-0.7-0.8-1.4-0.9-2.2c-0.1-0.8-0.1-2.1-0.1-4.1v-3.2c0-1.9,0-3.3,0.1-4
	c0.1-0.8,0.4-1.5,0.8-2.2c0.5-0.7,1.1-1.2,1.9-1.5c0.8-0.4,1.7-0.5,2.8-0.5c1,0,1.9,0.2,2.7,0.5c0.8,0.3,1.5,0.8,2,1.5
	c0.5,0.7,0.8,1.4,0.9,2.2c0.1,0.8,0.1,2.1,0.1,4.1V17.5z M164,11.3c0-0.9-0.1-1.4-0.2-1.7c-0.1-0.2-0.3-0.4-0.6-0.4
	c-0.3,0-0.5,0.1-0.6,0.3c-0.1,0.2-0.2,0.8-0.2,1.8v8.9c0,1.1,0,1.8,0.1,2c0.1,0.3,0.3,0.4,0.6,0.4c0.3,0,0.5-0.1,0.6-0.4
	c0.1-0.3,0.1-1,0.1-2.1V11.3z"/>
<path class="st2" d="M170.8,6.4h3.5c2.3,0,3.9,0.1,4.7,0.3c0.8,0.2,1.5,0.6,2,1.4c0.5,0.7,0.8,1.9,0.8,3.5c0,1.5-0.2,2.5-0.6,3
	c-0.4,0.5-1.1,0.8-2.2,0.9c1,0.2,1.6,0.6,2,1c0.3,0.4,0.5,0.8,0.6,1.1c0.1,0.3,0.1,1.3,0.1,2.8v5h-4.6v-6.3c0-1-0.1-1.6-0.2-1.9
	c-0.2-0.2-0.6-0.4-1.3-0.4v8.6h-4.9V6.4z M175.7,9.6v4.2c0.6,0,0.9-0.1,1.2-0.2c0.2-0.2,0.3-0.7,0.3-1.5v-1c0-0.6-0.1-1-0.3-1.2
	C176.7,9.7,176.3,9.6,175.7,9.6z"/>
<path class="st2" d="M183.7,6.4h8.2v3.8h-3.3v3.6h3.1v3.6h-3.1v4.2h3.6v3.8h-8.6V6.4z"/>
<path class="st2" d="M193.7,6.4h3.5c2.3,0,3.9,0.1,4.7,0.3c0.8,0.2,1.5,0.6,2,1.4c0.5,0.7,0.8,1.9,0.8,3.5c0,1.5-0.2,2.5-0.5,3
	c-0.4,0.5-1.1,0.8-2.2,0.9c1,0.2,1.6,0.6,2,1c0.3,0.4,0.5,0.8,0.6,1.1c0.1,0.3,0.1,1.3,0.1,2.8v5h-4.6v-6.3c0-1-0.1-1.6-0.2-1.9
	c-0.2-0.2-0.6-0.4-1.3-0.4v8.6h-4.9V6.4z M198.7,9.6v4.2c0.6,0,0.9-0.1,1.2-0.2c0.2-0.2,0.3-0.7,0.3-1.5v-1c0-0.6-0.1-1-0.3-1.2
	C199.6,9.7,199.2,9.6,198.7,9.6z"/>
<path class="st2" d="M56.2,12.4v13h-4.9v-13H56.2z"/>
</svg>
